# xmcd CD database file
#
# Track frame offsets:
#	150
#	32648
#	54131
#	75667
#	100297
#	129221
#	161864
#	189871
#	211588
#	234290
#	255911
#	271424
#	285726
#	299782
#	314756
#
# Disc length: 4557 seconds
#
# Revision: 0
# Processed by: cddbd v1.5.2PL0 Copyright (c) Steve Scherf et al.
# Submitted via: CDex 1.51
#
DISCID=cc11cb0f
DTITLE=Art Tatum and Ben Webster - The Art Tatum · Ben Webster quartet
DYEAR=1956
DGENRE=Jazz
TTITLE0=All the things you are
TTITLE1=Gone with the wind
TTITLE2=Have you met Miss Jones?
TTITLE3=Night and day
TTITLE4=Where or when
TTITLE5=My ideal
TTITLE6=My one and only love
TTITLE7=Gone with the wind (alt 1)
TTITLE8=Have you met Miss Jones? (alt)
TTITLE9=Gone with the wind (alt 2)
TTITLE10=My funny Valentine (Ben Webster - Teddy Wilson quartet 1954)
TTITLE11=You're mine, you! (Ben Webster - Teddy Wilson quartet 1954)
TTITLE12=Sophisticated lady (Ben Webster - Teddy Wilson quartet 1954)
TTITLE13=Love's away (Ben Webster - Teddy Wilson quartet 1954)
TTITLE14=All the things you are (Art Tatum 1953)
EXTD=YEAR: 1956
EXTT0=
EXTT1=
EXTT2=
EXTT3=
EXTT4=
EXTT5=
EXTT6=
EXTT7=
EXTT8=
EXTT9=
EXTT10=
EXTT11=
EXTT12=
EXTT13=
EXTT14=
PLAYORDER=
